<?xml version="1.0" encoding="UTF-8" standalone="no"?>
<!DOCTYPE svg PUBLIC "-//W3C//DTD SVG 1.1//EN" "http://www.w3.org/Graphics/SVG/1.1/DTD/svg11.dtd">
<!-- Generated by Microsoft Visio, SVG Export demo2_overall.svg Page-1 -->
<svg xmlns="http://www.w3.org/2000/svg" xmlns:xlink="http://www.w3.org/1999/xlink" xmlns:ev="http://www.w3.org/2001/xml-events"
		xmlns:v="http://schemas.microsoft.com/visio/2003/SVGExtensions/" width="5.7476in" height="2.78988in"
		viewBox="0 0 413.827 200.872" xml:space="preserve" color-interpolation-filters="sRGB" class="st18">
	<v:documentProperties v:langID="1033" v:viewMarkup="false">
		<v:userDefs>
			<v:ud v:nameU="msvNoAutoConnect" v:val="VT0(1):26"/>
		</v:userDefs>
	</v:documentProperties>

	<style type="text/css">
	<![CDATA[
		.st1 {fill:#ffffff;stroke:#000000;stroke-width:0.75}
		.st2 {fill:#000000;font-family:Calibri;font-size:0.833336em}
		.st3 {fill:#ffc000;stroke:#000000;stroke-width:0.75}
		.st4 {fill:#000000;font-family:Calibri;font-size:0.75em;font-style:italic}
		.st5 {fill:#5b9bd5;stroke:#7f7f7f;stroke-width:0.25}
		.st6 {fill:#feffff;font-family:Calibri;font-size:0.499992em}
		.st7 {font-size:1em}
		.st8 {stroke:#000000;stroke-linecap:round;stroke-linejoin:round;stroke-width:1}
		.st9 {fill:none;stroke:none;stroke-width:0.25}
		.st10 {fill:#000000;font-family:Calibri;font-size:0.499992em}
		.st11 {fill:#70ad47;stroke:#7f7f7f;stroke-width:0.25}
		.st12 {fill:#ffffff}
		.st13 {stroke:#000000;stroke-linecap:round;stroke-linejoin:round;stroke-width:0.75}
		.st14 {fill:#ffffff;stroke:#000000;stroke-linecap:round;stroke-linejoin:round;stroke-width:0.75}
		.st15 {fill:#000000}
		.st16 {fill:none;stroke:none;stroke-linecap:round;stroke-linejoin:round;stroke-width:0.75}
		.st17 {fill:#000000;font-family:Calibri;font-size:1.00001em;font-weight:bold}
		.st18 {fill:none;fill-rule:evenodd;font-size:12px;overflow:visible;stroke-linecap:square;stroke-miterlimit:3}
	]]>
	</style>

	<g v:mID="0" v:index="1" v:groupContext="foregroundPage">
		<title>Page-1</title>
		<v:pageProperties v:drawingScale="1" v:pageScale="1" v:drawingUnits="19" v:shadowOffsetX="9" v:shadowOffsetY="-9"/>
		<v:layer v:name="Connector" v:index="0"/>
		<v:layer v:name="Flowchart" v:index="1"/>
		<g id="shape37-1" v:mID="37" v:groupContext="shape" transform="translate(18.7496,-75.6965)">
			<title>Round Corner Rectangle.37</title>
			<desc>Platform 1</desc>
			<v:userDefs>
				<v:ud v:nameU="CTypeTopLeftSnip" v:prompt="" v:val="VT0(0):5"/>
				<v:ud v:nameU="CTypeTopRightSnip" v:prompt="" v:val="VT0(0):5"/>
				<v:ud v:nameU="CTypeBotLeftSnip" v:prompt="" v:val="VT0(0):5"/>
				<v:ud v:nameU="CTypeBotRightSnip" v:prompt="" v:val="VT0(0):5"/>
				<v:ud v:nameU="CornerLockHoriz" v:prompt="" v:val="VT0(0):5"/>
				<v:ud v:nameU="CornerLockVert" v:prompt="" v:val="VT0(0):5"/>
				<v:ud v:nameU="CornerLockDiag" v:prompt="" v:val="VT0(0):5"/>
				<v:ud v:nameU="TopLeftOffset" v:prompt="" v:val="VT0(0.15):1"/>
				<v:ud v:nameU="TopRightOffset" v:prompt="" v:val="VT0(0.15):1"/>
				<v:ud v:nameU="BotLeftOffset" v:prompt="" v:val="VT0(0.15):1"/>
				<v:ud v:nameU="BotRightOffset" v:prompt="" v:val="VT0(0.15):1"/>
				<v:ud v:nameU="visVersion" v:prompt="" v:val="VT0(15):26"/>
				<v:ud v:nameU="TopLeftOffset" v:prompt="" v:val="VT0(0.32503277619427):1"/>
				<v:ud v:nameU="TopRightOffset" v:prompt="" v:val="VT0(0.32503277619427):1"/>
				<v:ud v:nameU="BotLeftOffset" v:prompt="" v:val="VT0(0.32503277619427):1"/>
				<v:ud v:nameU="BotRightOffset" v:prompt="" v:val="VT0(0.32503277619427):1"/>
			</v:userDefs>
			<v:textBlock v:margins="rect(4,4,4,4)" v:verticalAlign="0"/>
			<v:textRect cx="117.012" cy="147.659" width="234.03" height="106.425"/>
			<path d="M23.4 200.87 L210.62 200.87 A23.402 23.402 -180 0 0 234.02 177.47 L234.02 117.85 A23.402 23.402 -180 0 0 210.62
						 94.45 L23.4 94.45 A23.402 23.402 -180 0 0 -0 117.85 L0 177.47 A23.402 23.402 -180 0 0 23.4 200.87 Z"
					class="st1"/>
			<text x="95.65" y="107.45" class="st2" v:langID="1033"><v:paragraph v:horizAlign="1"/><v:tabList/>Platform 1</text>		</g>
		<g id="shape38-4" v:mID="38" v:groupContext="shape" transform="translate(288,-76.4465)">
			<title>Round Corner Rectangle.38</title>
			<desc>Platform 2</desc>
			<v:userDefs>
				<v:ud v:nameU="CTypeTopLeftSnip" v:prompt="" v:val="VT0(0):5"/>
				<v:ud v:nameU="CTypeTopRightSnip" v:prompt="" v:val="VT0(0):5"/>
				<v:ud v:nameU="CTypeBotLeftSnip" v:prompt="" v:val="VT0(0):5"/>
				<v:ud v:nameU="CTypeBotRightSnip" v:prompt="" v:val="VT0(0):5"/>
				<v:ud v:nameU="CornerLockHoriz" v:prompt="" v:val="VT0(0):5"/>
				<v:ud v:nameU="CornerLockVert" v:prompt="" v:val="VT0(0):5"/>
				<v:ud v:nameU="CornerLockDiag" v:prompt="" v:val="VT0(0):5"/>
				<v:ud v:nameU="TopLeftOffset" v:prompt="" v:val="VT0(0.15):1"/>
				<v:ud v:nameU="TopRightOffset" v:prompt="" v:val="VT0(0.15):1"/>
				<v:ud v:nameU="BotLeftOffset" v:prompt="" v:val="VT0(0.15):1"/>
				<v:ud v:nameU="BotRightOffset" v:prompt="" v:val="VT0(0.15):1"/>
				<v:ud v:nameU="visVersion" v:prompt="" v:val="VT0(15):26"/>
				<v:ud v:nameU="TopLeftOffset" v:prompt="" v:val="VT0(0.13750000327826):1"/>
				<v:ud v:nameU="TopRightOffset" v:prompt="" v:val="VT0(0.13750000327826):1"/>
				<v:ud v:nameU="BotLeftOffset" v:prompt="" v:val="VT0(0.13750000327826):1"/>
				<v:ud v:nameU="BotRightOffset" v:prompt="" v:val="VT0(0.13750000327826):1"/>
			</v:userDefs>
			<v:textBlock v:margins="rect(4,4,4,4)" v:verticalAlign="0"/>
			<v:textRect cx="49.5" cy="147.659" width="99.01" height="106.425"/>
			<path d="M9.9 200.87 L89.1 200.87 A9.89984 9.89984 -180 0 0 99 190.97 L99 104.35 A9.89984 9.89984 -180 0 0 89.1 94.45
						 L9.9 94.45 A9.89984 9.89984 -180 0 0 0 104.35 L0 190.97 A9.89984 9.89984 -180 0 0 9.9 200.87 Z"
					class="st1"/>
			<text x="28.14" y="107.45" class="st2" v:langID="1033"><v:paragraph v:horizAlign="1"/><v:tabList/>Platform 2</text>		</g>
		<g id="shape3-7" v:mID="3" v:groupContext="shape" transform="translate(23.2024,-105.775)">
			<title>Round Corner Rectangle.3</title>
			<desc>QEMU</desc>
			<v:userDefs>
				<v:ud v:nameU="CTypeTopLeftSnip" v:prompt="" v:val="VT0(0):5"/>
				<v:ud v:nameU="CTypeTopRightSnip" v:prompt="" v:val="VT0(0):5"/>
				<v:ud v:nameU="CTypeBotLeftSnip" v:prompt="" v:val="VT0(0):5"/>
				<v:ud v:nameU="CTypeBotRightSnip" v:prompt="" v:val="VT0(0):5"/>
				<v:ud v:nameU="CornerLockHoriz" v:prompt="" v:val="VT0(0):5"/>
				<v:ud v:nameU="CornerLockVert" v:prompt="" v:val="VT0(0):5"/>
				<v:ud v:nameU="CornerLockDiag" v:prompt="" v:val="VT0(0):5"/>
				<v:ud v:nameU="TopLeftOffset" v:prompt="" v:val="VT0(0.15):1"/>
				<v:ud v:nameU="TopRightOffset" v:prompt="" v:val="VT0(0.15):1"/>
				<v:ud v:nameU="BotLeftOffset" v:prompt="" v:val="VT0(0.15):1"/>
				<v:ud v:nameU="BotRightOffset" v:prompt="" v:val="VT0(0.15):1"/>
				<v:ud v:nameU="visVersion" v:prompt="" v:val="VT0(15):26"/>
				<v:ud v:nameU="TopLeftOffset" v:prompt="" v:val="VT0(0.13750000327826):1"/>
				<v:ud v:nameU="TopRightOffset" v:prompt="" v:val="VT0(0.13750000327826):1"/>
				<v:ud v:nameU="BotLeftOffset" v:prompt="" v:val="VT0(0.13750000327826):1"/>
				<v:ud v:nameU="BotRightOffset" v:prompt="" v:val="VT0(0.13750000327826):1"/>
			</v:userDefs>
			<v:textBlock v:margins="rect(4,4,4,4)" v:verticalAlign="2"/>
			<v:textRect cx="49.5" cy="171.248" width="99.01" height="59.2465"/>
			<path d="M9.9 200.87 L89.1 200.87 A9.89984 9.89984 -180 0 0 99 190.97 L99 151.52 A9.89984 9.89984 -180 0 0 89.1 141.62
						 L9.9 141.62 A9.89984 9.89984 -180 0 0 0 151.52 L0 190.97 A9.89984 9.89984 -180 0 0 9.9 200.87 Z"
					class="st1"/>
			<text x="4" y="193.87" class="st2" v:langID="1045"><v:paragraph/><v:tabList/>QEMU</text>		</g>
		<g id="shape5-10" v:mID="5" v:groupContext="shape" transform="translate(163.827,-101.5)">
			<title>Round Corner Rectangle.5</title>
			<desc>proxy-container</desc>
			<v:userDefs>
				<v:ud v:nameU="CTypeTopLeftSnip" v:prompt="" v:val="VT0(0):5"/>
				<v:ud v:nameU="CTypeTopRightSnip" v:prompt="" v:val="VT0(0):5"/>
				<v:ud v:nameU="CTypeBotLeftSnip" v:prompt="" v:val="VT0(0):5"/>
				<v:ud v:nameU="CTypeBotRightSnip" v:prompt="" v:val="VT0(0):5"/>
				<v:ud v:nameU="CornerLockHoriz" v:prompt="" v:val="VT0(0):5"/>
				<v:ud v:nameU="CornerLockVert" v:prompt="" v:val="VT0(0):5"/>
				<v:ud v:nameU="CornerLockDiag" v:prompt="" v:val="VT0(0):5"/>
				<v:ud v:nameU="TopLeftOffset" v:prompt="" v:val="VT0(0.15):1"/>
				<v:ud v:nameU="TopRightOffset" v:prompt="" v:val="VT0(0.15):1"/>
				<v:ud v:nameU="BotLeftOffset" v:prompt="" v:val="VT0(0.15):1"/>
				<v:ud v:nameU="BotRightOffset" v:prompt="" v:val="VT0(0.15):1"/>
				<v:ud v:nameU="visVersion" v:prompt="" v:val="VT0(15):26"/>
				<v:ud v:nameU="TopLeftOffset" v:prompt="" v:val="VT0(0.11875):1"/>
				<v:ud v:nameU="TopRightOffset" v:prompt="" v:val="VT0(0.11875):1"/>
				<v:ud v:nameU="BotLeftOffset" v:prompt="" v:val="VT0(0.11875):1"/>
				<v:ud v:nameU="BotRightOffset" v:prompt="" v:val="VT0(0.11875):1"/>
			</v:userDefs>
			<v:textBlock v:margins="rect(4,4,4,4)"/>
			<v:textRect cx="42.75" cy="168.247" width="85.5" height="65.25"/>
			<path d="M8.55 200.87 L76.95 200.87 A8.54986 8.54986 -180 0 0 85.5 192.32 L85.5 144.17 A8.54986 8.54986 -180 0 0 76.95
						 135.62 L8.55 135.62 A8.54986 8.54986 -180 0 0 0 144.17 L0 192.32 A8.54986 8.54986 -180 0 0 8.55 200.87 Z"
					class="st3"/>
			<text x="13.89" y="170.95" class="st4" v:langID="1045"><v:paragraph v:horizAlign="1"/><v:tabList/>proxy-container</text>		</g>
		<g id="shape6-13" v:mID="6" v:groupContext="shape" transform="translate(294.75,-119.25)">
			<title>Round Corner Rectangle.6</title>
			<desc>storage-target</desc>
			<v:userDefs>
				<v:ud v:nameU="CTypeTopLeftSnip" v:prompt="" v:val="VT0(0):5"/>
				<v:ud v:nameU="CTypeTopRightSnip" v:prompt="" v:val="VT0(0):5"/>
				<v:ud v:nameU="CTypeBotLeftSnip" v:prompt="" v:val="VT0(0):5"/>
				<v:ud v:nameU="CTypeBotRightSnip" v:prompt="" v:val="VT0(0):5"/>
				<v:ud v:nameU="CornerLockHoriz" v:prompt="" v:val="VT0(0):5"/>
				<v:ud v:nameU="CornerLockVert" v:prompt="" v:val="VT0(0):5"/>
				<v:ud v:nameU="CornerLockDiag" v:prompt="" v:val="VT0(0):5"/>
				<v:ud v:nameU="TopLeftOffset" v:prompt="" v:val="VT0(0.15):1"/>
				<v:ud v:nameU="TopRightOffset" v:prompt="" v:val="VT0(0.15):1"/>
				<v:ud v:nameU="BotLeftOffset" v:prompt="" v:val="VT0(0.15):1"/>
				<v:ud v:nameU="BotRightOffset" v:prompt="" v:val="VT0(0.15):1"/>
				<v:ud v:nameU="visVersion" v:prompt="" v:val="VT0(15):26"/>
				<v:ud v:nameU="TopLeftOffset" v:prompt="" v:val="VT0(0.11875):1"/>
				<v:ud v:nameU="TopRightOffset" v:prompt="" v:val="VT0(0.11875):1"/>
				<v:ud v:nameU="BotLeftOffset" v:prompt="" v:val="VT0(0.11875):1"/>
				<v:ud v:nameU="BotRightOffset" v:prompt="" v:val="VT0(0.11875):1"/>
			</v:userDefs>
			<v:textBlock v:margins="rect(4,4,4,4)"/>
			<v:textRect cx="42.75" cy="186.247" width="85.5" height="29.25"/>
			<path d="M8.55 200.87 L76.95 200.87 A8.54986 8.54986 -180 0 0 85.5 192.32 L85.5 180.17 A8.54986 8.54986 -180 0 0 76.95
						 171.62 L8.55 171.62 A8.54986 8.54986 -180 0 0 -0 180.17 L0 192.32 A8.54986 8.54986 -180 0 0 8.55 200.87
						 Z" class="st3"/>
			<text x="16.15" y="188.95" class="st4" v:langID="1045"><v:paragraph v:horizAlign="1"/><v:tabList/>storage-target</text>		</g>
		<g id="shape7-16" v:mID="7" v:groupContext="shape" transform="translate(139.077,-126.25)">
			<title>Sheet.7</title>
			<desc>vhost/virtio-blk</desc>
			<v:textBlock v:margins="rect(4,4,4,4)"/>
			<v:textRect cx="16.875" cy="192.997" width="33.75" height="15.75"/>
			<rect x="0" y="185.122" width="33.75" height="15.75" class="st5"/>
			<text x="9.02" y="191.2" class="st6" v:langID="1045"><v:paragraph v:horizAlign="1"/><v:tabList/>vhost/<tspan x="5.96"
						dy="1.2em" class="st7">virtio</tspan>-blk</text>		</g>
		<g id="shape8-20" v:mID="8" v:groupContext="shape" transform="translate(114.375,-108.772)">
			<title>Sheet.8</title>
			<desc>qemu monitor</desc>
			<v:textBlock v:margins="rect(4,4,4,4)"/>
			<v:textRect cx="16.875" cy="192.997" width="33.75" height="15.75"/>
			<rect x="0" y="185.122" width="33.75" height="15.75" class="st5"/>
			<text x="9.83" y="191.2" class="st6" v:langID="1045"><v:paragraph v:horizAlign="1"/><v:tabList/>qemu <tspan x="7"
						dy="1.2em" class="st7">monitor</tspan></text>		</g>
		<g id="shape14-24" v:mID="14" v:groupContext="shape" v:layerMember="0" transform="translate(249.327,-143)">
			<title>Dynamic connector.22</title>
			<path d="M0 209.75 L45.42 210" class="st8"/>
		</g>
		<g id="shape15-27" v:mID="15" v:groupContext="shape" transform="translate(248,-137.25)">
			<title>Sheet.15</title>
			<desc>NVMe/TCP</desc>
			<v:textBlock v:margins="rect(4,4,4,4)"/>
			<v:textRect cx="24.5" cy="195.247" width="49" height="11.25"/>
			<rect x="0" y="189.622" width="49" height="11.25" class="st9"/>
			<text x="11.03" y="197.05" class="st10" v:langID="1045"><v:paragraph v:horizAlign="1"/><v:tabList/>NVMe/TCP</text>		</g>
		<g id="shape16-30" v:mID="16" v:groupContext="shape" transform="translate(321.577,-37.375)">
			<title>Round Corner Rectangle.24</title>
			<v:userDefs>
				<v:ud v:nameU="CTypeTopLeftSnip" v:prompt="" v:val="VT0(0):5"/>
				<v:ud v:nameU="CTypeTopRightSnip" v:prompt="" v:val="VT0(0):5"/>
				<v:ud v:nameU="CTypeBotLeftSnip" v:prompt="" v:val="VT0(0):5"/>
				<v:ud v:nameU="CTypeBotRightSnip" v:prompt="" v:val="VT0(0):5"/>
				<v:ud v:nameU="CornerLockHoriz" v:prompt="" v:val="VT0(0):5"/>
				<v:ud v:nameU="CornerLockVert" v:prompt="" v:val="VT0(0):5"/>
				<v:ud v:nameU="CornerLockDiag" v:prompt="" v:val="VT0(0):5"/>
				<v:ud v:nameU="TopLeftOffset" v:prompt="" v:val="VT0(0.15):1"/>
				<v:ud v:nameU="TopRightOffset" v:prompt="" v:val="VT0(0.15):1"/>
				<v:ud v:nameU="BotLeftOffset" v:prompt="" v:val="VT0(0.15):1"/>
				<v:ud v:nameU="BotRightOffset" v:prompt="" v:val="VT0(0.15):1"/>
				<v:ud v:nameU="visVersion" v:prompt="" v:val="VT0(15):26"/>
				<v:ud v:nameU="TopLeftOffset" v:prompt="" v:val="VT0(0.040625000000001):1"/>
				<v:ud v:nameU="TopRightOffset" v:prompt="" v:val="VT0(0.040625000000001):1"/>
				<v:ud v:nameU="BotLeftOffset" v:prompt="" v:val="VT0(0.040625000000001):1"/>
				<v:ud v:nameU="BotRightOffset" v:prompt="" v:val="VT0(0.040625000000001):1"/>
			</v:userDefs>
			<path d="M2.93 200.87 L26.33 200.87 A2.92495 2.92495 -180 0 0 29.25 197.95 L29.25 192.55 A2.92495 2.92495 -180 0 0 26.33
						 189.62 L2.93 189.62 A2.92495 2.92495 -180 0 0 -0 192.55 L0 197.95 A2.92495 2.92495 -180 0 0 2.93 200.87
						 Z" class="st3"/>
		</g>
		<g id="shape17-32" v:mID="17" v:groupContext="shape" transform="translate(322.702,-18.25)">
			<title>Sheet.17</title>
			<rect x="0" y="188.097" width="27.375" height="12.775" class="st5"/>
		</g>
		<g id="shape18-34" v:mID="18" v:groupContext="shape" transform="translate(342.077,-38.5)">
			<title>Sheet.18</title>
			<desc>containers</desc>
			<v:textBlock v:margins="rect(4,4,4,4)"/>
			<v:textRect cx="24.5" cy="195.247" width="49" height="11.25"/>
			<rect x="0" y="189.622" width="49" height="11.25" class="st9"/>
			<text x="11.66" y="197.05" class="st10" v:langID="1045"><v:paragraph v:horizAlign="1"/><v:tabList/>containers</text>		</g>
		<g id="shape19-37" v:mID="19" v:groupContext="shape" transform="translate(346.577,-20.5)">
			<title>Sheet.19</title>
			<desc>shared objects/ docker volumes</desc>
			<v:textBlock v:margins="rect(4,4,4,4)"/>
			<v:textRect cx="24.5" cy="195.247" width="49" height="11.25"/>
			<rect x="0" y="189.622" width="49" height="11.25" class="st9"/>
			<text x="5.55" y="193.45" class="st10" v:langID="1045"><v:paragraph v:horizAlign="1"/><v:tabList/>shared objects/ <tspan
						x="5.23" dy="1.2em" class="st7">docker volumes</tspan></text>		</g>
		<g id="shape22-41" v:mID="22" v:groupContext="shape" transform="translate(170.577,-92.5)">
			<title>Sheet.22</title>
			<desc>Hot-plug service</desc>
			<v:textBlock v:margins="rect(4,4,4,4)"/>
			<v:textRect cx="16.875" cy="192.997" width="33.75" height="15.75"/>
			<rect x="0" y="185.122" width="33.75" height="15.75" class="st11"/>
			<text x="6.25" y="191.2" class="st6" v:langID="1033"><v:paragraph v:horizAlign="1"/><v:tabList/>Hot-plug<v:newlineChar/><tspan
						x="8.36" dy="1.2em" class="st7">service</tspan></text>		</g>
		<g id="shape23-45" v:mID="23" v:groupContext="shape" transform="translate(320.601,-111.925)">
			<title>Sheet.23</title>
			<desc>SPDK rpc</desc>
			<v:textBlock v:margins="rect(4,4,4,4)"/>
			<v:textRect cx="16.875" cy="192.997" width="33.75" height="15.75"/>
			<rect x="0" y="185.122" width="33.75" height="15.75" class="st11"/>
			<text x="10.54" y="191.2" class="st6" v:langID="1033"><v:paragraph v:horizAlign="1"/><v:tabList/>SPDK<v:lf/><tspan
						x="12.98" dy="1.2em" class="st7">rpc</tspan></text>		</g>
		<g id="shape24-49" v:mID="24" v:groupContext="shape" transform="translate(211.077,-92.5)">
			<title>Sheet.24</title>
			<desc>SPDK rpc</desc>
			<v:textBlock v:margins="rect(4,4,4,4)"/>
			<v:textRect cx="16.875" cy="192.997" width="33.75" height="15.75"/>
			<rect x="0" y="185.122" width="33.75" height="15.75" class="st11"/>
			<text x="10.54" y="191.2" class="st6" v:langID="1033"><v:paragraph v:horizAlign="1"/><v:tabList/>SPDK<v:lf/><tspan
						x="12.98" dy="1.2em" class="st7">rpc</tspan></text>		</g>
		<g id="shape34-53" v:mID="34" v:groupContext="shape" v:layerMember="0" transform="translate(146.589,-108.25)">
			<title>Dynamic connector.1009</title>
			<path d="M1.54 191.87 L16.46 191.87" class="st8"/>
		</g>
		<g id="shape35-56" v:mID="35" v:groupContext="shape" transform="translate(321.327,-54.25)">
			<title>Sheet.35</title>
			<rect x="0" y="188.097" width="27.375" height="12.775" class="st11"/>
		</g>
		<g id="shape36-58" v:mID="36" v:groupContext="shape" transform="translate(337.327,-54.25)">
			<title>Sheet.36</title>
			<desc>services</desc>
			<v:textBlock v:margins="rect(4,4,4,4)"/>
			<v:textRect cx="24.5" cy="195.247" width="49" height="11.25"/>
			<rect x="0" y="189.622" width="49" height="11.25" class="st9"/>
			<text x="14.81" y="197.05" class="st10" v:langID="1033"><v:paragraph v:horizAlign="1"/><v:tabList/>services</text>		</g>
		<g id="shape39-61" v:mID="39" v:groupContext="shape" v:layerMember="0" transform="translate(230.49,-41.4438)">
			<title>Dynamic connector.1005</title>
			<path d="M0 200.87 L96.23 130.39" class="st8"/>
		</g>
		<g id="shape40-64" v:mID="40" v:groupContext="shape" v:layerMember="0" transform="translate(218.148,-58.2362)">
			<title>Dynamic connector.40</title>
			<path d="M8.45 200.87 L9.55 166.61" class="st8"/>
		</g>
		<g id="shape41-67" v:mID="41" v:groupContext="shape" v:layerMember="0" transform="translate(213.509,-58.2362)">
			<title>Dynamic connector.41</title>
			<path d="M0 200.87 L-21.19 166.61" class="st8"/>
		</g>
		<g id="shape42-70" v:mID="42" v:groupContext="shape" v:layerMember="0" transform="translate(201.976,-48.7022)">
			<title>Dynamic connector.42</title>
			<path d="M0 200.87 L-129.27 143.8" class="st8"/>
		</g>
		<g id="shape43-73" v:mID="43" v:groupContext="shape" transform="translate(29.9524,-120.022)">
			<title>Round Corner Rectangle.43</title>
			<desc>host-target</desc>
			<v:userDefs>
				<v:ud v:nameU="CTypeTopLeftSnip" v:prompt="" v:val="VT0(0):5"/>
				<v:ud v:nameU="CTypeTopRightSnip" v:prompt="" v:val="VT0(0):5"/>
				<v:ud v:nameU="CTypeBotLeftSnip" v:prompt="" v:val="VT0(0):5"/>
				<v:ud v:nameU="CTypeBotRightSnip" v:prompt="" v:val="VT0(0):5"/>
				<v:ud v:nameU="CornerLockHoriz" v:prompt="" v:val="VT0(0):5"/>
				<v:ud v:nameU="CornerLockVert" v:prompt="" v:val="VT0(0):5"/>
				<v:ud v:nameU="CornerLockDiag" v:prompt="" v:val="VT0(0):5"/>
				<v:ud v:nameU="TopLeftOffset" v:prompt="" v:val="VT0(0.15):1"/>
				<v:ud v:nameU="TopRightOffset" v:prompt="" v:val="VT0(0.15):1"/>
				<v:ud v:nameU="BotLeftOffset" v:prompt="" v:val="VT0(0.15):1"/>
				<v:ud v:nameU="BotRightOffset" v:prompt="" v:val="VT0(0.15):1"/>
				<v:ud v:nameU="visVersion" v:prompt="" v:val="VT0(15):26"/>
				<v:ud v:nameU="TopLeftOffset" v:prompt="" v:val="VT0(0.11875):1"/>
				<v:ud v:nameU="TopRightOffset" v:prompt="" v:val="VT0(0.11875):1"/>
				<v:ud v:nameU="BotLeftOffset" v:prompt="" v:val="VT0(0.11875):1"/>
				<v:ud v:nameU="BotRightOffset" v:prompt="" v:val="VT0(0.11875):1"/>
			</v:userDefs>
			<v:textBlock v:margins="rect(4,4,4,4)" v:verticalAlign="0"/>
			<v:textRect cx="42.75" cy="180.622" width="85.5" height="40.5"/>
			<path d="M8.55 200.87 L76.95 200.87 A8.54986 8.54986 -180 0 0 85.5 192.32 L85.5 168.92 A8.54986 8.54986 -180 0 0 76.95
						 160.37 L8.55 160.37 A8.54986 8.54986 -180 0 0 0 168.92 L0 192.32 A8.54986 8.54986 -180 0 0 8.55 200.87 Z"
					class="st3"/>
			<text x="22.16" y="172.47" class="st4" v:langID="1033"><v:paragraph v:horizAlign="1"/><v:tabList/>host-target</text>		</g>
		<g id="shape4-76" v:mID="4" v:groupContext="shape" transform="translate(44.5774,-126.25)">
			<title>Round Corner Rectangle</title>
			<desc>fio</desc>
			<v:userDefs>
				<v:ud v:nameU="CTypeTopLeftSnip" v:prompt="" v:val="VT0(0):5"/>
				<v:ud v:nameU="CTypeTopRightSnip" v:prompt="" v:val="VT0(0):5"/>
				<v:ud v:nameU="CTypeBotLeftSnip" v:prompt="" v:val="VT0(0):5"/>
				<v:ud v:nameU="CTypeBotRightSnip" v:prompt="" v:val="VT0(0):5"/>
				<v:ud v:nameU="CornerLockHoriz" v:prompt="" v:val="VT0(0):5"/>
				<v:ud v:nameU="CornerLockVert" v:prompt="" v:val="VT0(0):5"/>
				<v:ud v:nameU="CornerLockDiag" v:prompt="" v:val="VT0(0):5"/>
				<v:ud v:nameU="TopLeftOffset" v:prompt="" v:val="VT0(0.15):1"/>
				<v:ud v:nameU="TopRightOffset" v:prompt="" v:val="VT0(0.15):1"/>
				<v:ud v:nameU="BotLeftOffset" v:prompt="" v:val="VT0(0.15):1"/>
				<v:ud v:nameU="BotRightOffset" v:prompt="" v:val="VT0(0.15):1"/>
				<v:ud v:nameU="visVersion" v:prompt="" v:val="VT0(15):26"/>
				<v:ud v:nameU="TopLeftOffset" v:prompt="" v:val="VT0(0.078125):1"/>
				<v:ud v:nameU="TopRightOffset" v:prompt="" v:val="VT0(0.078125):1"/>
				<v:ud v:nameU="BotLeftOffset" v:prompt="" v:val="VT0(0.078125):1"/>
				<v:ud v:nameU="BotRightOffset" v:prompt="" v:val="VT0(0.078125):1"/>
			</v:userDefs>
			<v:textBlock v:margins="rect(4,4,4,4)"/>
			<v:textRect cx="28.125" cy="192.997" width="56.25" height="15.75"/>
			<path d="M5.62 200.87 L50.62 200.87 A5.62491 5.62491 -180 0 0 56.25 195.25 L56.25 190.75 A5.62491 5.62491 -180 0 0 50.62
						 185.12 L5.62 185.12 A5.62491 5.62491 -180 0 0 -0 190.75 L0 195.25 A5.62491 5.62491 -180 0 0 5.63 200.87
						 Z" class="st1"/>
			<text x="22.82" y="196" class="st2" v:langID="1045"><v:paragraph v:horizAlign="1"/><v:tabList/>fio</text>		</g>
		<g id="shape13-79" v:mID="13" v:groupContext="shape" v:layerMember="0" transform="translate(100.827,-125.125)">
			<title>Dynamic connector.21</title>
			<path d="M0 191.87 L24.19 191.87 L38.25 191.87" class="st8"/>
		</g>
		<g id="shape44-82" v:mID="44" v:groupContext="shape" transform="translate(68.2496,-108.772)">
			<title>Sheet.44</title>
			<desc>fio service</desc>
			<v:textBlock v:margins="rect(4,4,4,4)"/>
			<v:textRect cx="16.875" cy="192.997" width="33.75" height="15.75"/>
			<rect x="0" y="185.122" width="33.75" height="15.75" class="st11"/>
			<text x="4.49" y="194.8" class="st6" v:langID="1033"><v:paragraph v:horizAlign="1"/><v:tabList/>fio service</text>		</g>
		<g id="shape45-85" v:mID="45" v:groupContext="shape" v:layerMember="0" transform="translate(201.976,-51.4865)">
			<title>Dynamic connector.45</title>
			<path d="M0 200.87 L-102.73 143.59" class="st8"/>
		</g>
		<g id="group57-88" transform="translate(199.125,-18)" v:mID="57" v:groupContext="group" v:layerMember="1">
			<v:userDefs>
				<v:ud v:nameU="visVersion" v:prompt="" v:val="VT0(15):26"/>
				<v:ud v:nameU="ConnGap" v:prompt="" v:val="VT0(0.083333333333333):0"/>
			</v:userDefs>
			<title>User.9</title>
			<g id="shape58-89" v:mID="58" v:groupContext="shape" v:layerMember="1" transform="translate(19.8314,-1.7053E-13)">
				<title>Sheet.58</title>
				<path d="M30.89 175.41 A3.91936 3.92012 -180 1 0 23.05 175.41 A3.91936 3.92012 -180 1 0 30.89 175.41 ZM31.17 180.39
							 L22.68 180.39 C22.07 180.39 21.51 180.59 21.06 180.94 C20.75 181.19 20.49 181.5 20.31 181.85 C20.13
							 182.21 20.03 182.61 20.03 183.04 L20.03 193.1 L22.35 193.1 L22.35 200.87 L31.41 200.87 L31.41 193.1
							 L33.82 193.1 L33.82 183.04 C33.82 182.42 33.61 181.86 33.26 181.41 C33.02 181.1 32.71 180.84 32.35 180.67
							 C31.99 180.49 31.59 180.39 31.17 180.39 Z" class="st12"/>
				<path d="M30.89 175.41 A3.91936 3.92012 -180 1 0 23.05 175.41 A3.91936 3.92012 -180 1 0 30.89 175.41" class="st13"/>
				<path d="M31.17 180.39 L22.68 180.39 C22.07 180.39 21.51 180.59 21.06 180.94 C20.75 181.19 20.49 181.5 20.31 181.85
							 C20.13 182.21 20.03 182.61 20.03 183.04 L20.03 193.1 L22.35 193.1 L22.35 200.87 L31.41 200.87 L31.41
							 193.1 L33.82 193.1 L33.82 183.04 C33.82 182.42 33.61 181.86 33.26 181.41 C33.02 181.1 32.71 180.84 32.35
							 180.67 C31.99 180.49 31.59 180.39 31.17 180.39" class="st13"/>
				<path d="M26.92 200.87 L26.92 194.66" class="st13"/>
				<path d="M22.35 193.1 L22.35 187.74" class="st13"/>
				<path d="M31.41 193.1 L31.41 187.74" class="st13"/>
				<path d="M0 193.1 L20.03 193.1" class="st13"/>
			</g>
			<g id="shape59-97" v:mID="59" v:groupContext="shape" v:layerMember="1" transform="translate(0,-12.4882)">
				<title>Sheet.59</title>
				<path d="M31.37 175.55 C31.37 174.98 31.17 174.46 30.85 174.05 C30.63 173.77 30.34 173.54 30.02 173.38 C29.7 173.21
							 29.33 173.12 28.94 173.12 L5.27 173.12 C4.71 173.12 4.19 173.32 3.78 173.64 C3.5 173.86 3.26 174.15
							 3.1 174.47 C2.94 174.79 2.85 175.16 2.85 175.55 L2.85 191.2 L31.37 191.2 L31.37 175.55 ZM31.5 193.12
							 L2.63 193.12 L0 197.84 L0 200.87 L34.3 200.87 L34.3 197.85 L31.5 193.12 Z" class="st14"/>
			</g>
			<g id="shape60-99" v:mID="60" v:groupContext="shape" v:layerMember="1" transform="translate(4.74759,-24.0546)">
				<title>Sheet.60</title>
				<v:userDefs>
					<v:ud v:nameU="SurroundingRegionColor" v:prompt="" v:val="VT5(1)"/>
				</v:userDefs>
				<path d="M24.72 200.87 L24.72 187.11 C24.72 187.02 24.7 186.94 24.66 186.86 C24.61 186.78 24.53 186.7 24.45 186.65
							 C24.37 186.61 24.29 186.59 24.2 186.59 L0.53 186.59 C0.43 186.59 0.35 186.61 0.28 186.65 C0.19 186.7
							 0.11 186.77 0.06 186.86 C0.02 186.94 0 187.02 0 187.11 L0 200.87 L24.72 200.87 Z" class="st14"/>
			</g>
			<g id="shape61-101" v:mID="61" v:groupContext="shape" v:layerMember="1" transform="translate(2.94367,-16.0759)">
				<title>Sheet.61</title>
				<v:userDefs>
					<v:ud v:nameU="SurroundingRegionColor" v:prompt="" v:val="VT5(1)"/>
				</v:userDefs>
				<path d="M1.43 198.32 L0 200.87 L28.35 200.87 L26.92 198.32 L1.43 198.32 Z" class="st15"/>
			</g>
		</g>
		<g id="shape62-104" v:mID="62" v:groupContext="shape" transform="translate(252,-28.1181)">
			<title>Sheet.62</title>
			<desc>user</desc>
			<v:textBlock v:margins="rect(4,4,4,4)"/>
			<v:textRect cx="16.875" cy="190.872" width="33.76" height="20"/>
			<rect x="0" y="180.872" width="33.75" height="20" class="st16"/>
			<text x="6.11" y="194.47" class="st17" v:langID="1033"><v:paragraph v:horizAlign="1"/><v:tabList/>user</text>		</g>
	</g>
</svg>
